<?xml version="1.0" standalone="no"?>
<!DOCTYPE svg PUBLIC "-//W3C//DTD SVG 20010904//EN"
 "http://www.w3.org/TR/2001/REC-SVG-20010904/DTD/svg10.dtd">
<svg version="1.0" xmlns="http://www.w3.org/2000/svg"
 width="512.000000pt" height="512.000000pt" viewBox="0 0 512.000000 512.000000"
 preserveAspectRatio="xMidYMid meet">

<g transform="translate(0.000000,512.000000) scale(0.100000,-0.100000)"
fill="#000000" stroke="none">
<path d="M2440 4771 c-58 -16 -474 -126 -925 -245 -718 -191 -823 -221 -843
-243 l-23 -25 4 -872 c4 -947 3 -937 64 -1186 106 -439 355 -839 754 -1213
244 -228 518 -420 812 -567 261 -131 294 -132 531 -13 425 212 822 522 1099
856 319 385 509 823 546 1262 6 70 11 458 11 927 l0 807 -22 25 c-20 21 -134
54 -873 250 -914 242 -1009 266 -1022 265 -4 0 -55 -13 -113 -28z m871 -496
c404 -108 751 -200 771 -206 71 -19 68 12 68 -747 0 -720 -4 -812 -46 -1002
-116 -520 -507 -1036 -1075 -1417 -166 -112 -429 -253 -470 -253 -29 0 -263
123 -400 210 -582 369 -983 863 -1123 1380 -59 220 -59 222 -63 1031 -4 709
-3 746 14 767 15 18 159 59 783 226 421 113 774 205 786 205 12 1 351 -87 755
-194z"/>
<path d="M1905 4135 c-357 -96 -678 -181 -713 -191 l-62 -16 0 -627 c0 -647 6
-775 41 -940 51 -232 176 -501 317 -679 l18 -23 43 61 c127 181 328 341 532
425 44 18 82 35 85 37 2 3 -15 18 -38 33 -159 104 -273 262 -319 444 -27 106
-27 278 1 386 71 280 279 494 549 567 107 29 295 29 404 0 254 -69 454 -265
537 -527 31 -96 39 -299 16 -405 -20 -92 -77 -214 -141 -298 -45 -59 -151
-154 -203 -181 -13 -7 -21 -15 -18 -18 3 -3 40 -20 83 -37 207 -85 406 -243
535 -426 l42 -61 18 23 c189 243 315 562 347 877 10 94 16 1371 7 1371 -2 0
-324 86 -716 190 -392 105 -714 190 -714 189 -1 0 -293 -79 -651 -174z"/>
<path d="M2455 3465 c-249 -46 -429 -212 -490 -450 -19 -76 -19 -234 0 -310
55 -217 219 -382 435 -441 88 -24 245 -24 325 0 208 62 369 223 431 431 27 89
25 249 -3 340 -69 218 -254 386 -475 430 -91 18 -128 18 -223 0z"/>
<path d="M2372 2066 c-204 -39 -385 -127 -531 -259 -69 -62 -161 -171 -196
-232 l-27 -45 30 -37 c39 -49 156 -162 254 -246 164 -141 382 -288 567 -382
l93 -48 92 48 c195 104 333 194 494 322 104 83 277 246 323 305 l31 38 -27 45
c-35 61 -127 170 -196 232 -126 113 -281 196 -447 240 -121 31 -345 41 -460
19z"/>
</g>
</svg>
