<?xml version="1.0" standalone="no"?>
<!DOCTYPE svg PUBLIC "-//W3C//DTD SVG 20010904//EN"
 "http://www.w3.org/TR/2001/REC-SVG-20010904/DTD/svg10.dtd">
<svg version="1.0" xmlns="http://www.w3.org/2000/svg"
 width="512.000000pt" height="512.000000pt" viewBox="0 0 512.000000 512.000000"
 preserveAspectRatio="xMidYMid meet">

<g transform="translate(0.000000,512.000000) scale(0.100000,-0.100000)"
fill="#000000" stroke="none">
<path d="M2435 4739 c-502 -63 -885 -475 -885 -954 l0 -103 -187 -4 c-179 -3
-191 -4 -245 -30 -116 -54 -197 -158 -218 -278 -17 -102 -192 -2609 -186
-2669 12 -122 114 -255 234 -303 l57 -23 1555 0 1555 0 57 23 c120 48 222 181
234 303 6 60 -169 2566 -186 2668 -6 35 -20 82 -32 104 -33 67 -112 141 -181
173 -60 28 -68 29 -249 32 l-188 4 0 81 c-1 242 -110 497 -290 678 -172 173
-368 269 -610 299 -96 11 -135 11 -235 -1z m300 -335 c291 -74 515 -357 515
-651 l0 -73 -690 0 -690 0 0 73 c0 41 9 108 19 149 96 374 472 597 846 502z
m-1180 -1466 l-7 -423 23 -34 c34 -49 70 -72 121 -78 58 -7 118 23 149 74 l24
38 3 423 3 422 689 0 689 0 3 -422 3 -423 24 -38 c31 -51 91 -81 149 -74 50 5
87 29 120 77 22 33 22 34 22 456 l0 424 155 0 c149 0 155 -1 169 -22 11 -17
37 -340 106 -1317 l92 -1295 -22 -18 c-21 -17 -90 -18 -1510 -18 -1420 0
-1489 1 -1510 18 l-22 18 92 1295 c69 977 95 1300 106 1317 14 21 19 22 175
22 l161 0 -7 -422z"/>
</g>
</svg>
