<?xml version="1.0" standalone="no"?>
<!DOCTYPE svg PUBLIC "-//W3C//DTD SVG 20010904//EN"
 "http://www.w3.org/TR/2001/REC-SVG-20010904/DTD/svg10.dtd">
<svg version="1.0" xmlns="http://www.w3.org/2000/svg"
 width="512.000000pt" height="512.000000pt" viewBox="0 0 512.000000 512.000000"
 preserveAspectRatio="xMidYMid meet">

<g transform="translate(0.000000,512.000000) scale(0.100000,-0.100000)"
fill="#000000" stroke="none">
<path d="M2420 5064 c-541 -38 -1012 -219 -1435 -553 -90 -71 -305 -286 -376
-376 -297 -376 -472 -786 -535 -1255 -23 -168 -23 -472 0 -640 54 -404 192
-765 414 -1090 102 -149 166 -225 301 -361 135 -135 212 -199 361 -301 748
-513 1735 -576 2548 -162 240 123 431 262 628 459 252 252 427 513 554 827
317 789 225 1667 -248 2358 -408 596 -1036 983 -1742 1074 -120 16 -376 26
-470 20z m248 -361 c23 -13 55 -43 70 -65 l27 -42 3 -595 c3 -670 5 -651 -70
-715 -80 -69 -196 -69 -276 0 -75 64 -73 45 -70 716 l3 596 30 43 c67 96 181
121 283 62z m-703 -562 c49 -22 99 -77 115 -126 7 -21 10 -62 8 -91 -7 -83
-43 -127 -156 -191 -140 -79 -217 -137 -322 -242 -248 -249 -380 -573 -380
-932 0 -654 464 -1201 1114 -1314 115 -19 317 -19 437 1 485 81 889 428 1044
897 45 137 65 265 65 417 0 489 -253 916 -688 1165 -110 63 -152 122 -152 214
0 158 147 260 297 207 94 -33 294 -172 423 -294 745 -700 744 -1861 -3 -2568
-439 -415 -1053 -576 -1637 -429 -423 106 -805 379 -1042 745 -554 853 -278
1993 602 2489 47 26 99 53 115 59 46 16 116 13 160 -7z"/>
</g>
</svg>
