<svg width="17" height="19" viewBox="0 0 17 19" fill="none" xmlns="http://www.w3.org/2000/svg">
<path id="Vector" d="M14.2973 11.7593C13.6829 11.1171 12.9159 11.1171 12.3054 11.7593C11.8398 12.2482 11.3741 12.7372 10.9162 13.2344C10.791 13.3711 10.6853 13.4001 10.5327 13.309C10.2314 13.1349 9.91048 12.9941 9.62089 12.8035C8.27079 11.9043 7.13983 10.7483 6.13801 9.44728C5.64102 8.8009 5.19881 8.10895 4.88966 7.32999C4.82704 7.17254 4.83878 7.06895 4.9601 6.9405C5.42578 6.46401 5.87973 5.97508 6.33759 5.48616C6.97547 4.80664 6.97547 4.0111 6.33368 3.32743C5.96974 2.93795 5.6058 2.55676 5.24186 2.16727C4.86618 1.7695 4.49441 1.36759 4.11481 0.973965C3.50042 0.340021 2.7334 0.340021 2.12292 0.978109C1.65332 1.46703 1.20329 1.96839 0.725857 2.44903C0.28365 2.89237 0.0605888 3.43516 0.0136287 4.06911C-0.0607248 5.10082 0.177989 6.07453 0.514537 7.02337C1.20329 8.98736 2.25206 10.7317 3.5239 12.3311C5.24186 14.494 7.29245 16.2052 9.69133 17.44C10.7714 17.9952 11.8906 18.4219 13.1077 18.4924C13.9451 18.5421 14.673 18.3184 15.2561 17.6264C15.6553 17.1541 16.1053 16.7231 16.5279 16.2715C17.1541 15.6003 17.158 14.7882 16.5358 14.1252C15.7922 13.3338 15.0448 12.5466 14.2973 11.7593Z" fill="#7E9778"/>
</svg>
