<?xml version="1.0" standalone="no"?>
<!DOCTYPE svg PUBLIC "-//W3C//DTD SVG 20010904//EN"
 "http://www.w3.org/TR/2001/REC-SVG-20010904/DTD/svg10.dtd">
<svg version="1.0" xmlns="http://www.w3.org/2000/svg"
 width="512.000000pt" height="512.000000pt" viewBox="0 0 512.000000 512.000000"
 preserveAspectRatio="xMidYMid meet">

<g transform="translate(0.000000,512.000000) scale(0.100000,-0.100000)"
fill="#000000" stroke="none">
<path d="M2505 4789 c-52 -30 -62 -93 -20 -134 21 -22 33 -25 103 -25 439 0
925 -183 1277 -480 359 -303 602 -686 710 -1119 32 -131 46 -231 54 -395 6
-129 8 -140 30 -157 33 -27 86 -25 116 6 29 28 32 76 14 265 -37 413 -193 813
-453 1160 -93 124 -305 336 -431 430 -308 230 -666 380 -1035 434 -150 22
-340 30 -365 15z"/>
<path d="M977 4690 c-83 -21 -142 -63 -271 -189 -71 -69 -155 -161 -188 -205
-189 -252 -246 -589 -151 -891 35 -110 81 -199 178 -341 590 -867 1326 -1636
2170 -2269 536 -401 682 -470 995 -469 272 1 481 86 697 285 129 118 218 220
257 294 29 56 31 67 31 165 0 172 -7 183 -309 488 -138 140 -270 265 -294 279
-101 60 -228 78 -333 47 -78 -23 -132 -57 -220 -140 -96 -89 -158 -116 -269
-116 -100 -1 -152 19 -285 107 -258 171 -449 328 -686 565 -230 230 -376 406
-550 665 -104 156 -122 205 -117 319 5 114 31 169 129 273 45 47 81 97 102
141 30 63 32 74 32 177 0 170 -4 175 -314 488 -228 230 -264 262 -328 294 -61
30 -83 36 -155 39 -45 2 -100 -1 -121 -6z"/>
<path d="M2520 4103 c-60 -24 -79 -95 -37 -137 20 -20 38 -24 123 -30 195 -14
395 -66 546 -142 459 -230 749 -668 784 -1182 8 -125 23 -152 85 -152 44 0 75
24 85 67 11 42 -13 267 -41 379 -141 583 -642 1062 -1227 1173 -108 20 -293
35 -318 24z"/>
<path d="M2483 3388 c-31 -33 -31 -87 0 -116 18 -17 43 -24 118 -32 345 -35
599 -288 640 -638 12 -100 25 -127 66 -143 29 -11 80 7 94 34 7 11 11 52 10
90 -4 193 -89 396 -230 549 -152 165 -357 263 -576 275 -96 5 -101 4 -122 -19z"/>
</g>
</svg>
