<svg xmlns="http://www.w3.org/2000/svg" xmlns:xlink="http://www.w3.org/1999/xlink" xmlns:svgjs="http://svgjs.com/svgjs" version="1.1" width="55" height="55" x="0" y="0" viewBox="0 0 511.991 511.991" style="enable-background:new 0 0 512 512" xml:space="preserve" class=""><g>
<g xmlns="http://www.w3.org/2000/svg" id="XMLID_1804_">
	<g id="XMLID_296_">
		<path id="XMLID_339_" d="M299.673,337.145c1.953,1.953,4.512,2.929,7.071,2.929s5.119-0.976,7.071-2.929l30.167-30.167    c3.905-3.905,3.905-10.237,0-14.143c-3.905-3.905-10.237-3.905-14.143,0l-23.096,23.096l-8.585-8.585    c-3.905-3.905-10.237-3.905-14.143,0c-3.905,3.905-3.905,10.237,0,14.143L299.673,337.145z" fill="#7c9577" data-original="#000000" style="" class=""/>
		<path id="XMLID_342_" d="M384,398.991v-168c0-5.523-4.477-10-10-10H254c-5.523,0-10,4.477-10,10v168c0,5.523,4.477,10,10,10h120    C379.523,408.991,384,404.514,384,398.991z M364,388.991H264v-148h100V388.991z" fill="#7c9577" data-original="#000000" style="" class=""/>
		<path id="XMLID_844_" d="M507.978,284.481l-64.013-110.872c-0.456-10.006-5.838-18.743-13.771-23.851L367.978,41.994    c-8.271-14.325-26.653-19.251-40.981-10.981L129.582,144.991H30c-16.542,0-30,13.458-30,30v280c0,16.542,13.458,30,30,30h244    c5.523,0,10-4.477,10-10s-4.477-10-10-10H30c-5.514,0-10-4.486-10-10v-280c0-5.514,4.486-10,10-10h282.942    c0.012,0,0.025,0.002,0.037,0.002c0.02,0,0.039-0.002,0.059-0.002H414c5.514,0,10,4.486,10,10v280c0,5.514-4.486,10-10,10h-60    c-5.523,0-10,4.477-10,10s4.477,10,10,10h60c16.542,0,30-13.458,30-30v-98.931l52.997-30.598    C511.323,317.191,516.249,298.807,507.978,284.481z M444,278.91v-65.241l44.561,77.182L444,278.91z M404.349,144.991h-78.344    l24.834-92.682L404.349,144.991z M330.138,52.293l-24.838,92.697H169.581L330.138,52.293z M444,299.616l39.454,10.571L444,332.966    V299.616z" fill="#7c9577" data-original="#000000" style="" class=""/>
		<path id="XMLID_861_" d="M67.266,388.991c-5.523,0-10,4.477-10,10s4.477,10,10,10h93.417c5.523,0,10-4.477,10-10s-4.477-10-10-10    H67.266z" fill="#7c9577" data-original="#000000" style="" class=""/>
		<path id="XMLID_865_" d="M200.683,340.991H67.266c-5.523,0-10,4.477-10,10s4.477,10,10,10h133.417c5.523,0,10-4.477,10-10    S206.206,340.991,200.683,340.991z" fill="#7c9577" data-original="#000000" style="" class=""/>
		<path id="XMLID_867_" d="M200.683,292.991H67.266c-5.523,0-10,4.477-10,10s4.477,10,10,10h133.417c5.523,0,10-4.477,10-10    S206.206,292.991,200.683,292.991z" fill="#7c9577" data-original="#000000" style="" class=""/>
		<path id="XMLID_901_" d="M97.85,272.657c22.327,0,40.497-18.124,40.58-40.431c2.364,0.981,4.58,2.424,6.499,4.343    c7.58,7.581,17.659,11.755,28.378,11.755c10.72,0,20.799-4.175,28.379-11.755c3.905-3.905,3.905-10.237,0-14.142    s-10.237-3.905-14.142,0c-3.803,3.803-8.858,5.897-14.236,5.897c-5.377,0-10.433-2.094-14.236-5.897    c-7.191-7.191-16.633-11.31-26.736-11.714c-7.167-11.527-19.942-19.222-34.486-19.222c-22.378,0-40.583,18.206-40.583,40.583    C57.266,254.452,75.472,272.657,97.85,272.657z M97.85,211.491c4.853,0,9.311,1.698,12.834,4.518    c-3.021,1.743-5.837,3.886-8.369,6.418c-3.905,3.905-3.905,10.237,0,14.143s10.237,3.905,14.143,0    c0.554-0.555,1.139-1.06,1.739-1.536c-1.443,9.949-10.004,17.624-20.346,17.624c-11.35,0-20.583-9.233-20.583-20.583    S86.5,211.491,97.85,211.491z" fill="#7c9577" data-original="#000000" style="" class=""/>
		<path id="XMLID_985_" d="M314,464.991c-2.63,0-5.21,1.07-7.07,2.93c-1.86,1.86-2.93,4.44-2.93,7.07c0,2.63,1.07,5.21,2.93,7.07    c1.86,1.86,4.44,2.93,7.07,2.93c2.63,0,5.21-1.07,7.07-2.93s2.93-4.44,2.93-7.07c0-2.63-1.07-5.21-2.93-7.07    C319.21,466.06,316.63,464.991,314,464.991z" fill="#7c9577" data-original="#000000" style="" class=""/>
		<path id="XMLID_990_" d="M200.68,388.991c-2.63,0-5.21,1.07-7.07,2.93c-1.86,1.86-2.93,4.44-2.93,7.07c0,2.63,1.07,5.21,2.93,7.07    s4.44,2.93,7.07,2.93c2.64,0,5.21-1.07,7.07-2.93c1.87-1.86,2.93-4.44,2.93-7.07c0-2.63-1.06-5.21-2.93-7.07    C205.89,390.06,203.32,388.991,200.68,388.991z" fill="#7c9577" data-original="#000000" style="" class=""/>
	</g>
</g>
</g></svg>