<svg xmlns="http://www.w3.org/2000/svg" xmlns:xlink="http://www.w3.org/1999/xlink" xmlns:svgjs="http://svgjs.com/svgjs" version="1.1" width="55" height="55" x="0" y="0" viewBox="0 0 512 512" style="enable-background:new 0 0 512 512" xml:space="preserve" class=""><g><g xmlns="http://www.w3.org/2000/svg"><g><path d="m202.73 92.98c-4.171 0-7.989-2.7-9.403-6.615-1.377-3.811-.246-8.229 2.809-10.902 3.279-2.869 8.171-3.26 11.87-.97 3.528 2.184 5.359 6.454 4.512 10.515-.955 4.578-5.102 7.972-9.788 7.972z" fill="#7c9577" data-original="#000000" style="" class=""/><path d="m405.097 205.301v-99.934c0-17.858-14.514-32.387-32.353-32.387h-124.989c-5.523 0-10 4.477-10 10s4.477 10 10 10h124.989c6.812 0 12.353 5.557 12.353 12.387v1.067l-182.549 147.846-182.548-147.845v-1.067c0-6.83 5.541-12.387 12.352-12.387h124.991c5.523 0 10-4.477 10-10s-4.477-10-10-10h-124.991c-17.839-.001-32.352 14.528-32.352 32.386v254.542c0 17.858 14.513 32.387 32.352 32.387h269.357c21.354 28.359 55.27 46.724 93.388 46.724 64.461 0 116.903-52.518 116.903-117.072 0-61.18-47.105-111.55-106.903-116.647zm-20 0c-40.162 3.423-74.598 27.268-92.884 61.094l-38.27-28.004 131.153-106.22v73.13zm-233.944 33.09-131.153 95.972v-202.192zm-118.801 133.905c-6.811 0-12.352-5.557-12.352-12.387v-.763l147.228-107.735 29.026 23.508c1.835 1.486 4.064 2.229 6.294 2.229 2.229 0 4.459-.743 6.294-2.229l29.026-23.508 46.214 33.818c-3.82 11.554-5.889 23.899-5.889 36.719 0 18.013 4.084 35.089 11.372 50.348zm362.745 46.724c-53.433 0-96.903-43.546-96.903-97.072 0-53.525 43.471-97.072 96.903-97.072s96.903 43.547 96.903 97.072c0 53.526-43.471 97.072-96.903 97.072z" fill="#7c9577" data-original="#000000" style="" class=""/><path d="m395.097 391.703c-17.035 0-30.894-13.859-30.894-30.893v-7.968h-7.968c-17.035 0-30.894-13.859-30.894-30.894s13.858-30.894 30.894-30.894h7.968v-7.968c0-17.035 13.858-30.893 30.894-30.893 17.035 0 30.893 13.859 30.893 30.893v7.968h7.968c17.035 0 30.894 13.859 30.894 30.894s-13.858 30.894-30.894 30.894h-7.968v7.968c0 17.034-13.858 30.893-30.893 30.893zm-38.862-80.648c-6.007 0-10.894 4.887-10.894 10.894s4.887 10.894 10.894 10.894h17.968c5.522 0 10 4.477 10 10v17.968c0 6.007 4.887 10.893 10.894 10.893s10.893-4.887 10.893-10.893v-17.968c0-5.523 4.478-10 10-10h17.968c6.007 0 10.894-4.887 10.894-10.894s-4.887-10.894-10.894-10.894h-17.968c-5.522 0-10-4.477-10-10v-17.968c0-6.007-4.887-10.893-10.893-10.893-6.007 0-10.894 4.887-10.894 10.893v17.968c0 5.523-4.478 10-10 10z" fill="#7c9577" data-original="#000000" style="" class=""/></g></g></g></svg>
