<svg width="47" height="42" viewBox="0 0 47 42" fill="none" xmlns="http://www.w3.org/2000/svg">
<path d="M3.92106 40.5666H31.769C33.9193 40.5666 35.6163 38.7905 35.6163 36.6337V34.276L45.4611 41.2115C45.6192 41.3279 45.83 41.3807 46.0198 41.3807C46.1673 41.3807 46.3359 41.349 46.473 41.275C46.7892 41.1164 47 40.7887 47 40.4292V17.4552C47 17.0957 46.7892 16.7785 46.473 16.6093C46.1567 16.4508 45.7457 16.4719 45.4611 16.6728L35.6269 23.6083V21.2507C35.6269 19.0938 33.9298 17.3071 31.7795 17.3071H3.92106C1.7708 17.3071 0 19.0938 0 21.2507V36.6337C0 38.7905 1.7708 40.5666 3.92106 40.5666ZM45.1132 19.2948V38.6002L35.6269 31.95V25.9449L45.1132 19.2948ZM33.7295 36.6548C33.7295 37.765 32.8336 38.6636 31.7269 38.6636H3.89997C2.79323 38.6636 1.89729 37.765 1.89729 36.6548V21.2189C1.89729 20.1089 2.79323 19.2102 3.89997 19.2102H31.7269C32.8336 19.2102 33.7295 20.1089 33.7295 21.2189V36.6548Z" fill="#7C9577"/>
<path d="M24.4749 13.8923C28.2168 13.8923 31.263 10.7734 31.263 6.94614C31.263 3.11889 28.2168 0 24.4749 0C20.7332 0 17.687 3.11889 17.687 6.94614C17.687 10.7734 20.7332 13.8923 24.4749 13.8923ZM24.4749 1.90305C27.1733 1.90305 29.3658 4.16557 29.3658 6.94614C29.3658 9.72669 27.1733 11.9892 24.4749 11.9892C21.7766 11.9892 19.5842 9.72669 19.5842 6.94614C19.5842 4.16557 21.7766 1.90305 24.4749 1.90305Z" fill="#7C9577"/>
<path d="M9.23345 12.5283C12.248 12.5283 14.6934 10.0226 14.6934 6.94606C14.6934 3.86946 12.248 1.36377 9.23345 1.36377C6.21888 1.36377 3.76295 3.86946 3.76295 6.94606C3.76295 10.0226 6.21888 12.5283 9.23345 12.5283ZM9.23345 3.26682C11.1939 3.26682 12.7961 4.91614 12.7961 6.94606C12.7961 8.97596 11.1939 10.6253 9.23345 10.6253C7.27292 10.6253 5.66023 8.97596 5.66023 6.94606C5.66023 4.91614 7.26239 3.26682 9.23345 3.26682Z" fill="#7C9577"/>
<path d="M28.2619 32.6957C27.8789 32.6957 27.5285 32.4471 27.3987 32.0866C27.2723 31.7358 27.376 31.329 27.6565 31.0828C27.9576 30.8186 28.4066 30.7826 28.7461 30.9935C29.07 31.1946 29.2381 31.5878 29.1603 31.9617C29.0727 32.3833 28.692 32.6957 28.2619 32.6957Z" fill="#7C9577"/>
<path d="M29.0546 19.7141C29.0546 19.2407 28.672 18.8569 28.2 18.8569C27.7281 18.8569 27.3455 19.2407 27.3455 19.7141V28.2855C27.3455 28.7589 27.7281 29.1426 28.2 29.1426C28.672 29.1426 29.0546 28.7589 29.0546 28.2855V19.7141Z" fill="#7C9577"/>
<path d="M29.0546 35.1428C29.0546 34.6694 28.672 34.2856 28.2 34.2856C27.7281 34.2856 27.3455 34.6694 27.3455 35.1428V38.5714C27.3455 39.0447 27.7281 39.4285 28.2 39.4285C28.672 39.4285 29.0546 39.0447 29.0546 38.5714V35.1428Z" fill="#7C9577"/>
<path d="M8.65116 24.4775C8.65116 25.2135 8.0546 25.812 7.31649 25.812C6.57839 25.812 5.98182 25.2135 5.98182 24.4775C5.98182 23.7415 6.57839 23.1431 7.31649 23.1431C8.0546 23.1431 8.65116 23.7415 8.65116 24.4775Z" stroke="#7C9577" stroke-width="2"/>
<path d="M17.9455 30H8.54546C7.1296 30 5.98182 31.1513 5.98182 32.5714C5.98182 33.9916 7.1296 35.1429 8.54546 35.1429H17.9455C19.3613 35.1429 20.5091 33.9916 20.5091 32.5714C20.5091 31.1513 19.3613 30 17.9455 30Z" stroke="#7C9577" stroke-width="2"/>
</svg>
