<svg xmlns="http://www.w3.org/2000/svg" xmlns:xlink="http://www.w3.org/1999/xlink" xmlns:svgjs="http://svgjs.com/svgjs" version="1.1" width="55" height="55" x="0" y="0" viewBox="0 0 512 512" style="enable-background:new 0 0 512 512" xml:space="preserve" class=""><g><g xmlns="http://www.w3.org/2000/svg"><g><path d="m462 108h-41.413l-31.94-62.548c-1.708-3.346-5.148-5.452-8.906-5.452h-176.149c-3.757 0-7.197 2.106-8.906 5.452l-31.939 62.548h-40.747v-21c0-10.477-8.523-19-19-19h-30c-10.477 0-19 8.523-19 19v21h-4c-27.57 0-50 22.43-50 50v264c0 27.57 22.43 50 50 50h412c27.57 0 50-22.43 50-50v-264c0-27.57-22.43-50-50-50zm-252.286-48h163.905l24.511 48h-212.927zm-135.714 28h28v20h-28zm418 334c0 16.542-13.458 30-30 30h-412c-16.542 0-30-13.458-30-30v-264c0-16.542 13.458-30 30-30h412c16.542 0 30 13.458 30 30z" fill="#7c9577" data-original="#000000" style="" class=""/><path d="m291.667 152c-28.781 0-56.361 8.773-79.76 25.371-22.877 16.229-40.081 38.66-49.749 64.868-1.912 5.182.739 10.932 5.921 12.843 5.18 1.913 10.931-.739 12.843-5.921 17.026-46.152 61.531-77.161 110.745-77.161 65.065 0 118 52.935 118 118s-52.935 118-118 118c-49.214 0-93.719-31.009-110.745-77.161-1.912-5.182-7.664-7.834-12.843-5.921-5.182 1.911-7.833 7.661-5.921 12.843 9.668 26.208 26.871 48.64 49.749 64.868 23.399 16.598 50.979 25.371 79.76 25.371 76.093 0 138-61.907 138-138s-61.907-138-138-138z" fill="#7c9577" data-original="#000000" style="" class=""/><path d="m291.667 384c51.832 0 94-42.168 94-94s-42.168-94-94-94-94 42.168-94 94 42.168 94 94 94zm0-168c40.804 0 74 33.196 74 74s-33.196 74-74 74-74-33.196-74-74 33.196-74 74-74z" fill="#7c9577" data-original="#000000" style="" class=""/><path d="m291.667 264.399c14.117 0 25.601 11.484 25.601 25.601 0 5.523 4.477 10 10 10s10-4.477 10-10c0-25.144-20.457-45.601-45.601-45.601-5.523 0-10 4.477-10 10s4.477 10 10 10z" fill="#7c9577" data-original="#000000" style="" class=""/><path d="m88 164.312c-16.566 0-30.044 13.478-30.044 30.044s13.478 30.044 30.044 30.044 30.044-13.478 30.044-30.044-13.478-30.044-30.044-30.044zm0 40.088c-5.538 0-10.044-4.506-10.044-10.044s4.506-10.044 10.044-10.044 10.044 4.506 10.044 10.044-4.506 10.044-10.044 10.044z" fill="#7c9577" data-original="#000000" style="" class=""/><circle cx="163.67" cy="290" r="10" fill="#7c9577" data-original="#000000" style="" class=""/></g></g></g></svg>
